<svg version="1.2" xmlns="http://www.w3.org/2000/svg" viewBox="0 0 1080 1080" width="1080" height="1080">
	<title>New Project</title>
	<style>
		.s0 { fill: #000000 } 
	</style>
	<path id="Background" fill-rule="evenodd" class="s0" d="m100 0h880c55.2 0 100 44.8 100 100v880c0 55.2-44.8 100-100 100h-880c-55.2 0-100-44.8-100-100v-880c0-55.2 44.8-100 100-100zm434.2 597.9q73.4-1 128.7-24.4 56.4-23.5 88.4-71.3 32.9-47.9 32.9-121.3 0-71.3-31.9-120.3-30.8-50-86.2-76.6-54.2-26.6-125.5-26.6-76.6 0-132 28.8-54.2 28.7-83 78.7-28.7 50-27.6 113.8h128.7q0-50 29.8-78.7 29.8-29.8 83-29.8 51.1 0 81.9 29.8 30.9 28.7 30.9 79.8 0 53.2-26.6 80.9-26.6 27.6-71.3 37.2-44.7 9.6-98.9 9.6h-49l4.3 175.5h120.2zm-2.1 301.2q23.4-23.4 23.4-56.4 0-34.1-23.4-57.5-23.4-23.4-60.7-23.4-37.2 0-61.7 23.4-23.4 23.4-23.4 57.5 0 33 23.4 56.4 24.5 23.4 61.7 23.4 37.3 0 60.7-23.4z"/>
</svg>