<svg version="1.2" xmlns="http://www.w3.org/2000/svg" viewBox="0 0 1080 1080" width="1080" height="1080">
	<title>logo</title>
	<style>
		.s0 { fill: #ffffff } 
	</style>
	<path id="Background" fill-rule="evenodd" class="s0" d="m980 0c55.2 0 100 44.8 100 100v880c0 55.2-44.8 100-100 100h-880c-55.2 0-100-44.8-100-100v-880c0-55.2 44.8-100 100-100zm-825.4 363.5c-47.8 27.6-64.2 88.8-36.6 136.6l245.5 425.3c27.6 47.8 88.8 64.2 136.6 36.6l425.3-245.5c47.8-27.6 64.2-88.8 36.6-136.6l-245.5-425.3c-27.6-47.8-88.8-64.2-136.6-36.6z"/>
</svg>