<svg version="1.2" xmlns="http://www.w3.org/2000/svg" viewBox="0 0 1080 1080" width="1080" height="1080"><style>.a{fill:#fff}</style><path fill-rule="evenodd" class="a" d="m0 540c0-98.3 26.3-190.7 72.3-271.9l231.7 403.3c46.2 82.7 134.5 138.6 236 138.6 30.2 0 57.2-4.9 86.1-13.9l-161 278.8c-262.8-36.5-465.1-262.2-465.1-534.9zm770.1 138.4c26-40.5 39.9-89.7 39.9-138.4 0-80.6-35.4-152.9-91.3-202.5h322.1c25.3 62.4 39.2 131 39.2 202.5 0 298.3-241.7 538.1-540 540zm237.7-408.4h-467.8c-132.7 0-239.9 93-264.8 216.7l-160.9-279c98.7-126.4 252.7-207.7 425.7-207.7 199.9 0 374.4 108.6 467.8 270zm-467.8 455.7c-102.7 0-185.7-83-185.7-185.7 0-102.6 83-185.6 185.7-185.6 102.6 0 185.6 83 185.6 185.6 0 102.7-83 185.7-185.6 185.7z"/></svg>