<svg version="1.2" xmlns="http://www.w3.org/2000/svg" viewBox="0 0 1080 1080" width="1080" height="1080"><style>.a{fill:#fff}</style><path fill-rule="evenodd" class="a" d="m742.5 540c0 46.8-2.5 92-7 135h-391c-4.7-43-7-88.2-7-135 0-46.8 2.5-92 7-135h391c4.7 43 7 88.2 7 135zm60.7-135h259.7c11.2 43.2 17.1 88.4 17.1 135 0 46.6-5.9 91.8-17.1 135h-259.7c4.5-43.5 6.8-88.6 6.8-135 0-46.4-2.3-91.5-6.8-135zm237.6-67.5h-246.2c-21.1-134.8-62.9-247.6-116.6-319.8 165.1 43.7 299.5 163.5 362.8 319.8zm-314.5 0h-372.6c12.9-76.8 32.7-144.7 57-199.8 22.1-49.7 46.8-85.8 70.7-108.6 23.6-22.4 43.2-29.1 58.6-29.1 15.4 0 35 6.7 58.6 29.1 23.9 22.8 48.6 58.9 70.7 108.6 24.5 54.9 44.1 122.8 57 199.8zm-440.9 0h-246.2c63.3-156.3 197.5-276.1 362.8-319.8-53.7 72.2-95.5 185-116.6 319.8zm-268.3 67.5h259.6c-4.4 43.5-6.7 88.6-6.7 135 0 46.4 2.3 91.5 6.7 135h-259.6c-11.2-43.2-17.1-88.4-17.1-135 0-46.6 5.9-91.8 17.1-135zm393.6 537c-24.5-54.8-44.1-122.7-57-199.5h372.6c-12.9 76.8-32.7 144.7-57 199.5-22.1 49.8-46.8 85.9-70.7 108.7-23.6 22.5-43.2 29.3-58.6 29.3-15.4 0-35-6.8-58.6-29.1-23.9-22.8-48.6-58.9-70.7-108.9zm-125.3-199.5c21.1 134.8 62.9 247.6 116.6 319.8-165.3-43.7-299.5-163.5-362.8-319.8zm755.4 0c-63.3 156.3-197.4 276.1-362.6 319.8 53.8-72.2 95.3-185 116.6-319.8z"/></svg>