<svg version="1.2" xmlns="http://www.w3.org/2000/svg" viewBox="0 0 1080 1080" width="1080" height="1080"><style>.a{fill:#fff}</style><path fill-rule="evenodd" class="a" d="m683.5 71.2c-370.6 0-550 487.1-321.2 772.9 79.5 98.8 193 164.6 321.2 164.6 79.1 0 153.1-24.2 216.4-66.2-95.3 85.3-221.8 137.1-359.9 137.1-8.5 0-17.4 0-25.9-0.6-286.3-13.3-514.1-249.5-514.1-539.2 0-298.2 241.7-539.8 540-539.8h1.8c137.4 0.7 262.8 52.5 357.9 137.3-63.1-42.2-137.4-66.1-216.2-66.1zm221.7 865.6c-89.1 53.8-197.5 51.4-287.5-12.6 122.4-44.6 212.8-199.4 212.8-384.4 0-184.4-89.7-339.1-212.1-384.4 91-63.5 198.6-65.9 289.4-10.9 230.6 214.9 229.7 578.4-2.6 792.3z"/></svg>