<svg version="1.2" xmlns="http://www.w3.org/2000/svg" viewBox="0 0 1080 1081" width="1080" height="1081"><style>.a{fill:#fff}</style><path fill-rule="evenodd" class="a" d="m253.3 79.3c86.5-53.2 184.8-80.6 284.6-79 354.4 0 542.1 261.3 542.1 463.2-0.2 69.1-27.4 134.9-75.7 184.1-48.3 48.9-113.9 77-182.9 78-158.6 0-193-48.7-193-67.5 0-8 2.5-13.1 10.1-19.8l2.1-2.6 0.9-3.3c22.1-24.3 33.5-55.3 33.5-87.8 0-166.1-173.4-301.2-388.1-301.2-79.2-0.6-157.3 18.8-226.8 56.8 56.9-121.4 174.5-206 192.6-219.1 1.7-1.1 0.6-1.8 0.6-1.8zm32.9 671.2c-2.9 63.4 9.7 126.7 34.6 184.1 28.7 55.7 69 107.6 119.2 146.2-125.5-24.3-235.2-92.6-315.1-188.4-80.4-98-124.9-220.1-124.9-347.8 0-108.1 131.6-199.2 286.9-199.2 77.2-1.3 152.7 23 214.7 69l-7.6 2.5c-108.6 37.1-207.8 191.4-207.8 333.6zm704.8 94l-1.5 0.2c-24.9 39.6-54.6 74-89 104.4-65 59.1-143.7 96-229.5 105.3-39.2 0.7-77.6-6.7-113.5-24-54-21.8-99.3-63.3-129.9-111.9-30.4-50.4-44.5-109.1-40.1-168-1.3-42.4 11.4-85 31.6-122.8 29.4 69.9 79.1 129.4 142.6 170.5 63.5 41.2 138.2 62.3 213.9 60.4 65.4 0.6 131-14.1 190.3-43.3l4-1.9c8.2-4.8 16.2-8.2 24.5 0 9.5 10.4 3.8 19.4-2.6 29.6-0.4 0.4-0.6 1-0.8 1.5z"/></svg>