<svg version="1.2" xmlns="http://www.w3.org/2000/svg" viewBox="0 0 1046 1080" width="1046" height="1080"><style>.a{fill:#fff}</style><path fill-rule="evenodd" class="a" d="m1039.1 645.4c-37.4 247.5-257 434.6-515.8 434.6-289 0-523.3-234.2-523.3-523.1 0-16.9 4.8-68.5 14.5-112.2 24.4-109.6 84.1-181.5 119.1-217.1 15.6-16.2 32.7-30.9 51.1-43.9 2-1.3 17.2-10.4 17.5-9.2-1.2 18.1-2.7 104.7 18.1 131h0.2c30.4-34.1 72.2-72.8 126-97.3-11 42-10.5 86.2 1.5 127.9q7 4.7 13.5 10.2c8 6.8 17 15.8 36 34.5 35.5 34.9 126.5 71.1 126.7 75.4-0.8 13.1-46.8 57.9-62.9 57.9-148.8 0-172.9 90-172.9 90 7.4 85.4 88.1 189.2 215.6 194.8 260.9 11.4 311.4-311.8 123.1-405.8 48.2-8.4 98.3 11 126.2 30.6-22.4-39.2-96.1-134.8-230.8-133.6-36.8 0.3-73 8.6-106.3 24.3l-1.1 0.4c-1.8 0.6-3.6 0.8-5.5 0.7-1.8-0.2-3.6-0.8-5.2-1.7-1.6-0.9-3-2.1-4.1-3.6-1.1-1.4-1.9-3.1-2.3-4.9-0.7-3.1-0.3-6.4 1.2-9.2 1.4-2.9 3.8-5.1 6.7-6.5 32.2-15.3 67.1-24.1 102.8-26 15.5-95.2 76.9-207.6 177.1-263.3l0.3-0.1c4.6-1.2-4.1 2.1 28.1 52.9 81.9 129.5 182.2 188.9 241.4 336.4q-0.1-0.5-0.1-0.9c-6.5-43.2-23.6-101.1-53-158.7 36.2 18.7 82.2 77.7 105 132.4 0 2 56.4 118.6 31.6 283.1z"/></svg>